<?xml version="1.0" encoding="UTF-8"?>
<svg width="40.2mm" height="25.1mm" version="1.1" viewBox="0 0 40.2 25.1" xmlns="http://www.w3.org/2000/svg">
  <defs>
    <linearGradient id="gradient-stroke" x1="0" x2="0" y1="0" y2="1">
      <stop offset=".3" stop-color="#ffaff3">
        <animate attributeName="stop-color" values="#ffaff3;#ffaff3;#ffaff3;#ffaff3;#ffaff3;#ffaff3;#d9b5ff;#a6f0fc;#a6f0fc;#a6f0fc;#a6f0fc;#d9b5ff;#ffaff3" dur="6s" repeatCount="indefinite"/>
      </stop>
      <stop offset=".6" stop-color="#ffaff3">
        <animate attributeName="stop-color" values="#ffaff3;#ffaff3;#ffaff3;#ffaff3;#ffaff3;#d9b5ff;#a6f0fc;#a6f0fc;#a6f0fc;#a6f0fc;#d9b5ff;#ffaff3;#ffaff3" dur="6s" repeatCount="indefinite"/>
      </stop>
    </linearGradient>
    <linearGradient id="gradient" x1="0" x2="0" y1="0" y2="1">
      <stop offset=".1" stop-color="#555"/>
      <stop offset=".5" stop-color="#000"/>
      <stop offset="1" stop-color="#000"/>
    </linearGradient>
  </defs>
  <g transform="translate(-2.34 2.54)">
    <g transform="rotate(-13 21.4 9.17)" fill="url(#gradient-stroke) #ffaff3">
      <path id="r-stroke" d="m9.71 8.72c-0.718 0-1.4 0.282-1.83 0.821a0.662 0.662 0 0 0-0.0114 0.0155l-0.0997 0.133c-0.261 0.145-0.446 0.286-0.682 0.43 0.0193-0.0758 0.0662-0.115 0.0662-0.223 0-0.333-0.299-0.678-0.535-0.779-0.236-0.101-0.435-0.112-0.66-0.112-0.42 0-0.824 0.095-1.19 0.272-0.274 0.111-0.434 0.265-0.613 0.459-0.187 0.202-0.381 0.453-0.599 0.765-0.437 0.624-0.965 1.49-1.6 2.61a0.662 0.662 0 0 0-0.0021 2e-3c-0.626 1.11-1.1 1.99-1.42 2.65-0.161 0.33-0.284 0.605-0.373 0.836-0.089 0.232-0.16 0.384-0.16 0.67 0 0.324 0.286 0.671 0.521 0.776s0.434 0.113 0.654 0.113c0.798 0 1.55-0.269 1.91-0.906a0.662 0.662 0 0 0 0.0016-4e-3c0.345-0.616 0.729-1.23 1.15-1.83a0.662 0.662 0 0 0 0.0021-4e-3c0.4-0.588 0.9-1.16 1.5-1.72a0.662 0.662 0 0 0 0.0057-4e-3c0.25-0.235 0.35-0.202 0.543-0.315-2e-6 1e-3 0 3e-3 0 4e-3 0 0.351 0.0974 0.695 0.26 1.02a0.662 0.662 0 0 0 0.0057 0.0114c0.207 0.394 0.677 0.715 1.14 0.715 0.372 0 0.634-0.273 0.744-0.465a0.662 0.662 0 0 0 0.0274-0.0548c0.667-1.46 1.49-2.85 2.47-4.19a0.662 0.662 0 0 0 0-5.29e-4 0.662 0.662 0 0 0 0-5.29e-4 0.662 0.662 0 0 0 0-5.29e-4 0.662 0.662 0 0 0 0-5.29e-4c0.114-0.157 0.196-0.256 0.272-0.447a0.662 0.662 0 0 0 0.0465-0.246c0-0.198-0.0823-0.425-0.213-0.578-0.131-0.153-0.285-0.239-0.427-0.295-0.285-0.112-0.563-0.131-0.899-0.131z"/>
      <path id="a-stroke" d="m17.1 8.9c-0.977 0-1.92 0.198-2.81 0.588-0.875 0.37-1.64 0.856-2.27 1.46-0.592 0.565-1.12 1.19-1.58 1.86a0.662 0.662 0 0 0-0.0021 6e-3c-0.882 1.32-1.37 2.54-1.37 3.7 0 0.461 0.0644 0.879 0.309 1.24 0.244 0.363 0.71 0.582 1.13 0.582 0.674 0 1.34-0.223 1.94-0.621 0.492-0.305 0.89-0.619 1.25-0.942 0.0586 0.24 0.0537 0.505 0.221 0.699 0.298 0.346 0.762 0.502 1.2 0.502 0.204 0 0.486-0.107 0.643-0.295 0.157-0.188 0.194-0.383 0.207-0.541l-0.0036 0.0429c0.057-0.38 0.283-1.03 0.697-1.86l0.0021-2e-3c2.64e-4 -8e-4 -2.65e-4 -1e-3 0-2e-3 0.439-0.865 0.779-1.49 0.996-1.83 0.238-0.375 0.397-0.627 0.486-0.767l0.0083-0.0119c0.0486-0.073 0.0875-0.135 0.119-0.186 0.0167-0.0271 0.0312-0.0502 0.0491-0.0837 0.0089-0.0168 0.0186-0.0342 0.0331-0.0687 0.0072-0.0172 0.0169-0.0384 0.0274-0.0739 0.0052-0.0177 0.01-0.0391 0.0155-0.0687 0.0055-0.0295 0.0119-0.123 0.0119-0.123 0-0.0373-0.0333-0.0654-0.0393-0.103 0.0417 4e-3 0.0558 0.0408 0.102 0.0408 0.29 0 0.653-0.195 0.808-0.451 0.155-0.256 0.176-0.497 0.176-0.742 0-0.563-0.306-1.1-0.762-1.44-0.449-0.343-1.01-0.516-1.6-0.516zm-1.5 2.75c-0.144 0.0941-0.312 0.142-0.414 0.316l0.0062-0.0134c-0.546 0.947-1.09 1.65-1.62 2.12-0.35 0.305-0.481 0.318-0.666 0.398 0.107-0.56 0.383-1.15 1.04-1.82 0.563-0.571 1.11-0.845 1.65-1z"/>
      <path id="d-stroke" d="m33.5 0c-0.62 0-1.15 0.0715-1.62 0.256-0.465 0.184-0.866 0.508-1.09 0.947a0.662 0.662 0 0 0-0.0041 0.0041c-0.293 0.598-1.43 2.6-3.35 5.86-0.808 1.38-1.33 2.21-1.4 2.31-0.0171-0.0052-0.0293-0.0083-0.0434-0.0124-0.307-0.116-0.637-0.169-0.978-0.169-2.23 0-4.14 1.16-5.54 3.29-0.881 1.32-1.37 2.54-1.37 3.7 0 0.575 0.108 1.11 0.514 1.49 0.31 0.292 0.728 0.484 1.16 0.484 0.916 0 1.82-0.532 2.75-1.32 0.057 0.251 0.0583 0.522 0.236 0.722 0.298 0.335 0.753 0.481 1.18 0.481h0.0367c0.233 0 0.478-0.131 0.608-0.272 0.129-0.141 0.187-0.279 0.23-0.41a0.662 0.662 0 0 0 0.0021-0.0103c0.37-1.18 1.67-3.62 3.86-7.11a0.662 0.662 0 0 0 0.0181-0.031c0.841-1.52 1.75-3 2.73-4.44l0.0016-0.0036c0.997-1.45 1.76-2.53 2.28-3.23l0.0036-0.0057c0.274-0.357 0.482-0.636 0.629-0.848 0.074-0.107 0.132-0.196 0.182-0.281 0.0249-0.0428 0.0478-0.0827 0.0724-0.138 0.0245-0.0558 0.0682-0.101 0.0682-0.309 0-0.288-0.201-0.65-0.453-0.799-0.252-0.149-0.486-0.168-0.722-0.168zm-8.99 11.5c0.151 0 0.154 0.0131 0.195 0.0253-0.0124 0.0297 0.0021-0.0144-0.0176 0.0181-0.107 0.177-0.287 0.437-0.533 0.763-0.48 0.623-1.04 1.22-1.68 1.79-0.369 0.327-0.447 0.323-0.646 0.428 0.0955-0.46 0.252-0.992 0.877-1.76 0.751-0.927 1.37-1.26 1.81-1.26z"/>
      <path id="sparkles-stroke" d="m35.1 3.77a0.662 0.662 0 0 0-0.623 0.438c-0.282 0.777-0.637 1.4-1.06 1.89a0.662 0.662 0 0 0-0.0021 0.0021c-0.43 0.506-0.933 0.929-1.52 1.28a0.662 0.662 0 0 0-0.0062 0.0036l-0.519 0.316a0.662 0.662 0 0 0 0.0021 1.13l0.521 0.311a0.662 0.662 0 0 0 0.0021 0.0021c0.444 0.265 0.811 0.547 1.11 0.844a0.662 0.662 0 0 0 0.0036 0.0041c0.314 0.308 0.58 0.629 0.801 0.963 0.208 0.315 0.437 0.777 0.664 1.37a0.662 0.662 0 0 0 0.119 0.0822l-0.0336 0.0191a0.662 0.662 0 0 0-0.0036 1.13l0.441 0.273c0.296 0.186 0.533 0.399 0.721 0.641 0.173 0.225 0.367 0.603 0.547 1.12a0.662 0.662 0 0 0 1.25 0c0.19-0.55 0.392-0.937 0.557-1.14 0.19-0.239 0.421-0.445 0.705-0.621l0.443-0.273a0.662 0.662 0 0 0 0.25-0.313 0.662 0.662 0 0 0 0.803-0.269c0.208-0.477 0.435-0.81 0.649-1.01 0.252-0.236 0.545-0.437 0.892-0.606a0.662 0.662 0 0 0 0.0041-2e-3l0.586-0.289a0.662 0.662 0 0 0 0-1.19l-0.586-0.286a0.662 0.662 0 0 0-0.0021-0.0021c-0.382-0.186-0.686-0.402-0.924-0.645-0.228-0.239-0.435-0.557-0.613-0.97a0.662 0.662 0 0 0-1.21-0.0036c-0.0029 0.0066-0.0063 0.0089-0.0093 0.0155a0.662 0.662 0 0 0-0.24-0.291l-0.529-0.316a0.662 0.662 0 0 0-0.0041-0.0021c-0.588-0.346-1.09-0.764-1.51-1.26-0.407-0.482-0.762-1.12-1.05-1.91a0.662 0.662 0 0 0-0.621-0.436zm-0.0098 3.46c0.134 0.167 0.24 0.344 0.391 0.506 0.185 0.198 0.408 0.354 0.611 0.531-0.214 0.188-0.452 0.36-0.641 0.565-0.141 0.153-0.236 0.312-0.361 0.467-0.131-0.162-0.235-0.337-0.381-0.492-0.181-0.195-0.409-0.358-0.613-0.537 0.193-0.169 0.403-0.317 0.58-0.504 0.158-0.165 0.273-0.359 0.414-0.535z"/>
    </g>
    <g transform="rotate(-13 21.1 8.8)" fill="url(#gradient) #000">
      <path id="r" d="m7.45 14.1q-0.362 0-0.552-0.362-0.19-0.381-0.19-0.724 0-0.362 0.229-0.819 0-0.248-0.19-0.248-0.743 0-1.7 0.895-0.952 0.876-1.6 1.83-0.648 0.933-1.18 1.89-0.324 0.572-1.33 0.572-0.514 0-0.514-0.229 0-0.514 1.87-3.83 1.89-3.33 2.5-3.56 0.419-0.21 0.933-0.21 0.533 0 0.533 0.229 0 0.21-0.438 0.838-0.438 0.629-0.438 0.8t0.133 0.171q0.0762 0 0.419-0.229 0.838-0.629 2.06-1.3l0.171-0.229q0.457-0.572 1.31-0.572 0.876 0 0.876 0.343-0.0381 0.0952-0.19 0.305-1.5 2.06-2.53 4.31-0.0762 0.133-0.171 0.133z"/>
      <path id="a" d="m13.9 15.9 0.0381-0.4q0-0.152-0.114-0.152-0.171 0-0.705 0.495-0.514 0.495-1.31 0.991-0.781 0.514-1.58 0.514-0.781 0-0.781-1.16 0-1.45 1.26-3.33 0.648-0.952 1.49-1.75 0.857-0.819 2.08-1.33 1.22-0.533 2.55-0.533 0.705 0 1.2 0.381 0.495 0.362 0.495 0.914 0 0.533-0.324 0.533-0.171 0-0.457-0.21-0.533-0.362-1.68-0.362-1.5 0-2.86 1.37-1.33 1.35-1.33 2.69 0 0.171 0.0952 0.324 0.114 0.152 0.305 0.152 0.572 0 1.47-0.781 0.895-0.8 1.75-2.29 0.0572-0.171 0.419-0.324t0.857-0.152q0.705 0.0571 0.705 0.305 0 0.019-0.152 0.248-0.133 0.21-0.495 0.781t-1.03 1.89q-0.648 1.3-0.762 2.06-0.019 0.229-0.19 0.229-0.933 0-0.933-1.09z"/>
      <path id="d" d="m22.6 14.3q1.01-0.895 1.77-1.89 0.762-1.01 0.762-1.26 0-0.267-0.229-0.438-0.229-0.171-0.705-0.171-1.1 0-2.32 1.5-1.22 1.5-1.22 2.57 0 0.572 0.4 0.572 0.533 0 1.54-0.895zm1.09 2.76h-0.0381q-0.914 0-0.914-1.03l0.0381-0.381-0.133-0.19q-0.114 0-0.286 0.133-1.64 1.58-2.88 1.58-0.381 0-0.705-0.305-0.305-0.286-0.305-1.01 0-1.45 1.26-3.33 1.98-2.99 4.99-2.99 0.419 0 0.762 0.133 0.362 0.114 0.438 0.114 0.0952 0 0.324-0.286 0.229-0.305 1.47-2.42 2.88-4.9 3.37-5.91 0.419-0.838 2.11-0.838 0.514 0 0.514 0.305 0 0.114-0.819 1.18-0.8 1.07-2.31 3.26-1.49 2.19-2.76 4.5-3.3 5.26-3.92 7.26-0.0762 0.229-0.21 0.229z"/>
      <path id="sparkles" d="m34.8 11.7q-0.358-0.939-0.73-1.5-0.372-0.563-0.888-1.07-0.512-0.512-1.24-0.944l-0.521-0.312 0.521-0.316q0.972-0.577 1.69-1.42 0.721-0.842 1.18-2.1 0.465 1.28 1.17 2.11 0.707 0.833 1.68 1.4l0.53 0.316-0.53 0.312q-0.972 0.581-1.68 1.41-0.707 0.833-1.17 2.1zm-2-3.83q0.633 0.456 1.13 0.991 0.502 0.53 0.865 1.12 0.344-0.549 0.846-1.09 0.507-0.549 1.15-1.01-0.614-0.433-1.13-0.981-0.512-0.549-0.874-1.13-0.381 0.619-0.893 1.15-0.507 0.535-1.1 0.958zm9.02 2.21-0.586 0.288q-0.605 0.293-1.06 0.721-0.451 0.428-0.8 1.23-0.288-0.716-0.735-1.16-0.446-0.451-1.12-0.786l-0.581-0.288 0.581-0.288q0.642-0.312 1.09-0.767 0.451-0.46 0.767-1.18 0.307 0.712 0.749 1.17 0.446 0.456 1.11 0.777zm-2.44 0.963q0.158-0.205 0.419-0.46 0.265-0.256 0.651-0.502-0.386-0.246-0.651-0.502-0.26-0.256-0.419-0.46-0.163 0.205-0.428 0.465-0.265 0.256-0.646 0.498 0.381 0.242 0.646 0.502 0.265 0.256 0.428 0.46zm-2.78-0.819q0.298 0.874 0.656 1.33 0.363 0.451 0.884 0.777l0.442 0.27-0.442 0.274q-0.516 0.321-0.874 0.772-0.358 0.451-0.665 1.34-0.293-0.851-0.651-1.32-0.358-0.46-0.893-0.795l-0.442-0.274 0.442-0.27q0.521-0.326 0.888-0.791 0.367-0.47 0.656-1.32zm0 3.26q0.13-0.191 0.33-0.428 0.205-0.233 0.484-0.46-0.274-0.219-0.479-0.446-0.2-0.233-0.335-0.433-0.135 0.2-0.34 0.428-0.205 0.228-0.484 0.451 0.284 0.228 0.488 0.46 0.205 0.237 0.335 0.428z"/>
    </g>
  </g>
</svg>
